<mxfile host="app.diagrams.net" agent="Mozilla/5.0 (Windows NT 10.0; Win64; x64) AppleWebKit/537.36 (KHTML, like Gecko) Chrome/138.0.0.0 Safari/537.36 Edg/138.0.0.0" version="28.0.7">
  <diagram id="FaRHqigX5_1k5sIrR6Vs" name="Page-4">
    <mxGraphModel dx="1690" dy="1114" grid="1" gridSize="10" guides="1" tooltips="1" connect="1" arrows="1" fold="1" page="1" pageScale="1" pageWidth="850" pageHeight="1100" math="0" shadow="0">
      <root>
        <mxCell id="0" />
        <mxCell id="1" parent="0" />
        <mxCell id="oMRxIsXDjknZMeD3MPNt-1" value="EMPLOYEES" style="shape=table;startSize=25;container=1;collapsible=0;childLayout=tableLayout;fixedRows=1;rowLines=1;fontStyle=1;align=center;resizeLast=1;" vertex="1" parent="1">
          <mxGeometry x="20" y="914" width="321" height="342" as="geometry" />
        </mxCell>
        <mxCell id="oMRxIsXDjknZMeD3MPNt-2" style="shape=tableRow;horizontal=0;startSize=0;swimlaneHead=0;swimlaneBody=0;fillColor=none;collapsible=0;dropTarget=0;points=[[0,0.5],[1,0.5]];portConstraint=eastwest;top=0;left=0;right=0;bottom=0;" vertex="1" parent="oMRxIsXDjknZMeD3MPNt-1">
          <mxGeometry y="25" width="321" height="45" as="geometry" />
        </mxCell>
        <mxCell id="oMRxIsXDjknZMeD3MPNt-3" value="Number" style="shape=partialRectangle;connectable=0;fillColor=none;top=0;left=0;bottom=0;right=0;align=left;spacingLeft=2;overflow=hidden;fontSize=11;" vertex="1" parent="oMRxIsXDjknZMeD3MPNt-2">
          <mxGeometry width="36" height="45" as="geometry">
            <mxRectangle width="36" height="45" as="alternateBounds" />
          </mxGeometry>
        </mxCell>
        <mxCell id="oMRxIsXDjknZMeD3MPNt-4" value="_id" style="shape=partialRectangle;connectable=0;fillColor=none;top=0;left=0;bottom=0;right=0;align=left;spacingLeft=2;overflow=hidden;fontSize=11;" vertex="1" parent="oMRxIsXDjknZMeD3MPNt-2">
          <mxGeometry x="36" width="263" height="45" as="geometry">
            <mxRectangle width="263" height="45" as="alternateBounds" />
          </mxGeometry>
        </mxCell>
        <mxCell id="oMRxIsXDjknZMeD3MPNt-5" value="" style="shape=partialRectangle;connectable=0;fillColor=none;top=0;left=0;bottom=0;right=0;align=left;spacingLeft=2;overflow=hidden;fontSize=11;" vertex="1" parent="oMRxIsXDjknZMeD3MPNt-2">
          <mxGeometry x="299" width="22" height="45" as="geometry">
            <mxRectangle width="22" height="45" as="alternateBounds" />
          </mxGeometry>
        </mxCell>
        <mxCell id="oMRxIsXDjknZMeD3MPNt-6" style="shape=tableRow;horizontal=0;startSize=0;swimlaneHead=0;swimlaneBody=0;fillColor=none;collapsible=0;dropTarget=0;points=[[0,0.5],[1,0.5]];portConstraint=eastwest;top=0;left=0;right=0;bottom=0;" vertex="1" parent="oMRxIsXDjknZMeD3MPNt-1">
          <mxGeometry y="70" width="321" height="45" as="geometry" />
        </mxCell>
        <mxCell id="oMRxIsXDjknZMeD3MPNt-7" value="String" style="shape=partialRectangle;connectable=0;fillColor=none;top=0;left=0;bottom=0;right=0;align=left;spacingLeft=2;overflow=hidden;fontSize=11;" vertex="1" parent="oMRxIsXDjknZMeD3MPNt-6">
          <mxGeometry width="36" height="45" as="geometry">
            <mxRectangle width="36" height="45" as="alternateBounds" />
          </mxGeometry>
        </mxCell>
        <mxCell id="oMRxIsXDjknZMeD3MPNt-8" value="first_name" style="shape=partialRectangle;connectable=0;fillColor=none;top=0;left=0;bottom=0;right=0;align=left;spacingLeft=2;overflow=hidden;fontSize=11;" vertex="1" parent="oMRxIsXDjknZMeD3MPNt-6">
          <mxGeometry x="36" width="263" height="45" as="geometry">
            <mxRectangle width="263" height="45" as="alternateBounds" />
          </mxGeometry>
        </mxCell>
        <mxCell id="oMRxIsXDjknZMeD3MPNt-9" value="" style="shape=partialRectangle;connectable=0;fillColor=none;top=0;left=0;bottom=0;right=0;align=left;spacingLeft=2;overflow=hidden;fontSize=11;" vertex="1" parent="oMRxIsXDjknZMeD3MPNt-6">
          <mxGeometry x="299" width="22" height="45" as="geometry">
            <mxRectangle width="22" height="45" as="alternateBounds" />
          </mxGeometry>
        </mxCell>
        <mxCell id="oMRxIsXDjknZMeD3MPNt-10" style="shape=tableRow;horizontal=0;startSize=0;swimlaneHead=0;swimlaneBody=0;fillColor=none;collapsible=0;dropTarget=0;points=[[0,0.5],[1,0.5]];portConstraint=eastwest;top=0;left=0;right=0;bottom=0;" vertex="1" parent="oMRxIsXDjknZMeD3MPNt-1">
          <mxGeometry y="115" width="321" height="45" as="geometry" />
        </mxCell>
        <mxCell id="oMRxIsXDjknZMeD3MPNt-11" value="String" style="shape=partialRectangle;connectable=0;fillColor=none;top=0;left=0;bottom=0;right=0;align=left;spacingLeft=2;overflow=hidden;fontSize=11;" vertex="1" parent="oMRxIsXDjknZMeD3MPNt-10">
          <mxGeometry width="36" height="45" as="geometry">
            <mxRectangle width="36" height="45" as="alternateBounds" />
          </mxGeometry>
        </mxCell>
        <mxCell id="oMRxIsXDjknZMeD3MPNt-12" value="last_name" style="shape=partialRectangle;connectable=0;fillColor=none;top=0;left=0;bottom=0;right=0;align=left;spacingLeft=2;overflow=hidden;fontSize=11;" vertex="1" parent="oMRxIsXDjknZMeD3MPNt-10">
          <mxGeometry x="36" width="263" height="45" as="geometry">
            <mxRectangle width="263" height="45" as="alternateBounds" />
          </mxGeometry>
        </mxCell>
        <mxCell id="oMRxIsXDjknZMeD3MPNt-13" value="" style="shape=partialRectangle;connectable=0;fillColor=none;top=0;left=0;bottom=0;right=0;align=left;spacingLeft=2;overflow=hidden;fontSize=11;" vertex="1" parent="oMRxIsXDjknZMeD3MPNt-10">
          <mxGeometry x="299" width="22" height="45" as="geometry">
            <mxRectangle width="22" height="45" as="alternateBounds" />
          </mxGeometry>
        </mxCell>
        <mxCell id="oMRxIsXDjknZMeD3MPNt-14" style="shape=tableRow;horizontal=0;startSize=0;swimlaneHead=0;swimlaneBody=0;fillColor=none;collapsible=0;dropTarget=0;points=[[0,0.5],[1,0.5]];portConstraint=eastwest;top=0;left=0;right=0;bottom=0;" vertex="1" parent="oMRxIsXDjknZMeD3MPNt-1">
          <mxGeometry y="160" width="321" height="45" as="geometry" />
        </mxCell>
        <mxCell id="oMRxIsXDjknZMeD3MPNt-15" value="String" style="shape=partialRectangle;connectable=0;fillColor=none;top=0;left=0;bottom=0;right=0;align=left;spacingLeft=2;overflow=hidden;fontSize=11;" vertex="1" parent="oMRxIsXDjknZMeD3MPNt-14">
          <mxGeometry width="36" height="45" as="geometry">
            <mxRectangle width="36" height="45" as="alternateBounds" />
          </mxGeometry>
        </mxCell>
        <mxCell id="oMRxIsXDjknZMeD3MPNt-16" value="employee_category" style="shape=partialRectangle;connectable=0;fillColor=none;top=0;left=0;bottom=0;right=0;align=left;spacingLeft=2;overflow=hidden;fontSize=11;" vertex="1" parent="oMRxIsXDjknZMeD3MPNt-14">
          <mxGeometry x="36" width="263" height="45" as="geometry">
            <mxRectangle width="263" height="45" as="alternateBounds" />
          </mxGeometry>
        </mxCell>
        <mxCell id="oMRxIsXDjknZMeD3MPNt-17" value="" style="shape=partialRectangle;connectable=0;fillColor=none;top=0;left=0;bottom=0;right=0;align=left;spacingLeft=2;overflow=hidden;fontSize=11;" vertex="1" parent="oMRxIsXDjknZMeD3MPNt-14">
          <mxGeometry x="299" width="22" height="45" as="geometry">
            <mxRectangle width="22" height="45" as="alternateBounds" />
          </mxGeometry>
        </mxCell>
        <mxCell id="oMRxIsXDjknZMeD3MPNt-18" style="shape=tableRow;horizontal=0;startSize=0;swimlaneHead=0;swimlaneBody=0;fillColor=none;collapsible=0;dropTarget=0;points=[[0,0.5],[1,0.5]];portConstraint=eastwest;top=0;left=0;right=0;bottom=0;" vertex="1" parent="oMRxIsXDjknZMeD3MPNt-1">
          <mxGeometry y="205" width="321" height="45" as="geometry" />
        </mxCell>
        <mxCell id="oMRxIsXDjknZMeD3MPNt-19" value="String" style="shape=partialRectangle;connectable=0;fillColor=none;top=0;left=0;bottom=0;right=0;align=left;spacingLeft=2;overflow=hidden;fontSize=11;" vertex="1" parent="oMRxIsXDjknZMeD3MPNt-18">
          <mxGeometry width="36" height="45" as="geometry">
            <mxRectangle width="36" height="45" as="alternateBounds" />
          </mxGeometry>
        </mxCell>
        <mxCell id="oMRxIsXDjknZMeD3MPNt-20" value="compulsory_union_code" style="shape=partialRectangle;connectable=0;fillColor=none;top=0;left=0;bottom=0;right=0;align=left;spacingLeft=2;overflow=hidden;fontSize=11;" vertex="1" parent="oMRxIsXDjknZMeD3MPNt-18">
          <mxGeometry x="36" width="263" height="45" as="geometry">
            <mxRectangle width="263" height="45" as="alternateBounds" />
          </mxGeometry>
        </mxCell>
        <mxCell id="oMRxIsXDjknZMeD3MPNt-21" value="" style="shape=partialRectangle;connectable=0;fillColor=none;top=0;left=0;bottom=0;right=0;align=left;spacingLeft=2;overflow=hidden;fontSize=11;" vertex="1" parent="oMRxIsXDjknZMeD3MPNt-18">
          <mxGeometry x="299" width="22" height="45" as="geometry">
            <mxRectangle width="22" height="45" as="alternateBounds" />
          </mxGeometry>
        </mxCell>
        <mxCell id="oMRxIsXDjknZMeD3MPNt-22" style="shape=tableRow;horizontal=0;startSize=0;swimlaneHead=0;swimlaneBody=0;fillColor=none;collapsible=0;dropTarget=0;points=[[0,0.5],[1,0.5]];portConstraint=eastwest;top=0;left=0;right=0;bottom=0;" vertex="1" parent="oMRxIsXDjknZMeD3MPNt-1">
          <mxGeometry y="250" width="321" height="45" as="geometry" />
        </mxCell>
        <mxCell id="oMRxIsXDjknZMeD3MPNt-23" value="Number" style="shape=partialRectangle;connectable=0;fillColor=none;top=0;left=0;bottom=0;right=0;align=left;spacingLeft=2;overflow=hidden;fontSize=11;" vertex="1" parent="oMRxIsXDjknZMeD3MPNt-22">
          <mxGeometry width="36" height="45" as="geometry">
            <mxRectangle width="36" height="45" as="alternateBounds" />
          </mxGeometry>
        </mxCell>
        <mxCell id="oMRxIsXDjknZMeD3MPNt-24" value="termination_month" style="shape=partialRectangle;connectable=0;fillColor=none;top=0;left=0;bottom=0;right=0;align=left;spacingLeft=2;overflow=hidden;fontSize=11;" vertex="1" parent="oMRxIsXDjknZMeD3MPNt-22">
          <mxGeometry x="36" width="263" height="45" as="geometry">
            <mxRectangle width="263" height="45" as="alternateBounds" />
          </mxGeometry>
        </mxCell>
        <mxCell id="oMRxIsXDjknZMeD3MPNt-25" value="" style="shape=partialRectangle;connectable=0;fillColor=none;top=0;left=0;bottom=0;right=0;align=left;spacingLeft=2;overflow=hidden;fontSize=11;" vertex="1" parent="oMRxIsXDjknZMeD3MPNt-22">
          <mxGeometry x="299" width="22" height="45" as="geometry">
            <mxRectangle width="22" height="45" as="alternateBounds" />
          </mxGeometry>
        </mxCell>
        <mxCell id="oMRxIsXDjknZMeD3MPNt-26" style="shape=tableRow;horizontal=0;startSize=0;swimlaneHead=0;swimlaneBody=0;fillColor=none;collapsible=0;dropTarget=0;points=[[0,0.5],[1,0.5]];portConstraint=eastwest;top=0;left=0;right=0;bottom=0;" vertex="1" parent="oMRxIsXDjknZMeD3MPNt-1">
          <mxGeometry y="295" width="321" height="45" as="geometry" />
        </mxCell>
        <mxCell id="oMRxIsXDjknZMeD3MPNt-27" value="Number" style="shape=partialRectangle;connectable=0;fillColor=none;top=0;left=0;bottom=0;right=0;align=left;spacingLeft=2;overflow=hidden;fontSize=11;" vertex="1" parent="oMRxIsXDjknZMeD3MPNt-26">
          <mxGeometry width="36" height="45" as="geometry">
            <mxRectangle width="36" height="45" as="alternateBounds" />
          </mxGeometry>
        </mxCell>
        <mxCell id="oMRxIsXDjknZMeD3MPNt-28" value="termination_year" style="shape=partialRectangle;connectable=0;fillColor=none;top=0;left=0;bottom=0;right=0;align=left;spacingLeft=2;overflow=hidden;fontSize=11;" vertex="1" parent="oMRxIsXDjknZMeD3MPNt-26">
          <mxGeometry x="36" width="263" height="45" as="geometry">
            <mxRectangle width="263" height="45" as="alternateBounds" />
          </mxGeometry>
        </mxCell>
        <mxCell id="oMRxIsXDjknZMeD3MPNt-29" value="" style="shape=partialRectangle;connectable=0;fillColor=none;top=0;left=0;bottom=0;right=0;align=left;spacingLeft=2;overflow=hidden;fontSize=11;" vertex="1" parent="oMRxIsXDjknZMeD3MPNt-26">
          <mxGeometry x="299" width="22" height="45" as="geometry">
            <mxRectangle width="22" height="45" as="alternateBounds" />
          </mxGeometry>
        </mxCell>
        <mxCell id="oMRxIsXDjknZMeD3MPNt-30" value="DEPARTMENTS" style="shape=table;startSize=25;container=1;collapsible=0;childLayout=tableLayout;fixedRows=1;rowLines=1;fontStyle=1;align=center;resizeLast=1;" vertex="1" parent="1">
          <mxGeometry x="481" y="1021" width="281" height="129" as="geometry" />
        </mxCell>
        <mxCell id="oMRxIsXDjknZMeD3MPNt-31" style="shape=tableRow;horizontal=0;startSize=0;swimlaneHead=0;swimlaneBody=0;fillColor=none;collapsible=0;dropTarget=0;points=[[0,0.5],[1,0.5]];portConstraint=eastwest;top=0;left=0;right=0;bottom=0;" vertex="1" parent="oMRxIsXDjknZMeD3MPNt-30">
          <mxGeometry y="25" width="281" height="52" as="geometry" />
        </mxCell>
        <mxCell id="oMRxIsXDjknZMeD3MPNt-32" value="Number" style="shape=partialRectangle;connectable=0;fillColor=none;top=0;left=0;bottom=0;right=0;align=left;spacingLeft=2;overflow=hidden;fontSize=11;" vertex="1" parent="oMRxIsXDjknZMeD3MPNt-31">
          <mxGeometry width="36" height="52" as="geometry">
            <mxRectangle width="36" height="52" as="alternateBounds" />
          </mxGeometry>
        </mxCell>
        <mxCell id="oMRxIsXDjknZMeD3MPNt-33" value="_id" style="shape=partialRectangle;connectable=0;fillColor=none;top=0;left=0;bottom=0;right=0;align=left;spacingLeft=2;overflow=hidden;fontSize=11;" vertex="1" parent="oMRxIsXDjknZMeD3MPNt-31">
          <mxGeometry x="36" width="223" height="52" as="geometry">
            <mxRectangle width="223" height="52" as="alternateBounds" />
          </mxGeometry>
        </mxCell>
        <mxCell id="oMRxIsXDjknZMeD3MPNt-34" value="" style="shape=partialRectangle;connectable=0;fillColor=none;top=0;left=0;bottom=0;right=0;align=left;spacingLeft=2;overflow=hidden;fontSize=11;" vertex="1" parent="oMRxIsXDjknZMeD3MPNt-31">
          <mxGeometry x="259" width="22" height="52" as="geometry">
            <mxRectangle width="22" height="52" as="alternateBounds" />
          </mxGeometry>
        </mxCell>
        <mxCell id="oMRxIsXDjknZMeD3MPNt-35" style="shape=tableRow;horizontal=0;startSize=0;swimlaneHead=0;swimlaneBody=0;fillColor=none;collapsible=0;dropTarget=0;points=[[0,0.5],[1,0.5]];portConstraint=eastwest;top=0;left=0;right=0;bottom=0;" vertex="1" parent="oMRxIsXDjknZMeD3MPNt-30">
          <mxGeometry y="77" width="281" height="52" as="geometry" />
        </mxCell>
        <mxCell id="oMRxIsXDjknZMeD3MPNt-36" value="String" style="shape=partialRectangle;connectable=0;fillColor=none;top=0;left=0;bottom=0;right=0;align=left;spacingLeft=2;overflow=hidden;fontSize=11;" vertex="1" parent="oMRxIsXDjknZMeD3MPNt-35">
          <mxGeometry width="36" height="52" as="geometry">
            <mxRectangle width="36" height="52" as="alternateBounds" />
          </mxGeometry>
        </mxCell>
        <mxCell id="oMRxIsXDjknZMeD3MPNt-37" value="department_name" style="shape=partialRectangle;connectable=0;fillColor=none;top=0;left=0;bottom=0;right=0;align=left;spacingLeft=2;overflow=hidden;fontSize=11;" vertex="1" parent="oMRxIsXDjknZMeD3MPNt-35">
          <mxGeometry x="36" width="223" height="52" as="geometry">
            <mxRectangle width="223" height="52" as="alternateBounds" />
          </mxGeometry>
        </mxCell>
        <mxCell id="oMRxIsXDjknZMeD3MPNt-38" value="" style="shape=partialRectangle;connectable=0;fillColor=none;top=0;left=0;bottom=0;right=0;align=left;spacingLeft=2;overflow=hidden;fontSize=11;" vertex="1" parent="oMRxIsXDjknZMeD3MPNt-35">
          <mxGeometry x="259" width="22" height="52" as="geometry">
            <mxRectangle width="22" height="52" as="alternateBounds" />
          </mxGeometry>
        </mxCell>
        <mxCell id="oMRxIsXDjknZMeD3MPNt-39" value="JOB_TITLES" style="shape=table;startSize=25;container=1;collapsible=0;childLayout=tableLayout;fixedRows=1;rowLines=1;fontStyle=1;align=center;resizeLast=1;" vertex="1" parent="1">
          <mxGeometry x="902" y="1021" width="165" height="129" as="geometry" />
        </mxCell>
        <mxCell id="oMRxIsXDjknZMeD3MPNt-40" style="shape=tableRow;horizontal=0;startSize=0;swimlaneHead=0;swimlaneBody=0;fillColor=none;collapsible=0;dropTarget=0;points=[[0,0.5],[1,0.5]];portConstraint=eastwest;top=0;left=0;right=0;bottom=0;" vertex="1" parent="oMRxIsXDjknZMeD3MPNt-39">
          <mxGeometry y="25" width="165" height="52" as="geometry" />
        </mxCell>
        <mxCell id="oMRxIsXDjknZMeD3MPNt-41" value="String" style="shape=partialRectangle;connectable=0;fillColor=none;top=0;left=0;bottom=0;right=0;align=left;spacingLeft=2;overflow=hidden;fontSize=11;" vertex="1" parent="oMRxIsXDjknZMeD3MPNt-40">
          <mxGeometry width="36" height="52" as="geometry">
            <mxRectangle width="36" height="52" as="alternateBounds" />
          </mxGeometry>
        </mxCell>
        <mxCell id="oMRxIsXDjknZMeD3MPNt-42" value="_id" style="shape=partialRectangle;connectable=0;fillColor=none;top=0;left=0;bottom=0;right=0;align=left;spacingLeft=2;overflow=hidden;fontSize=11;" vertex="1" parent="oMRxIsXDjknZMeD3MPNt-40">
          <mxGeometry x="36" width="107" height="52" as="geometry">
            <mxRectangle width="107" height="52" as="alternateBounds" />
          </mxGeometry>
        </mxCell>
        <mxCell id="oMRxIsXDjknZMeD3MPNt-43" value="" style="shape=partialRectangle;connectable=0;fillColor=none;top=0;left=0;bottom=0;right=0;align=left;spacingLeft=2;overflow=hidden;fontSize=11;" vertex="1" parent="oMRxIsXDjknZMeD3MPNt-40">
          <mxGeometry x="143" width="22" height="52" as="geometry">
            <mxRectangle width="22" height="52" as="alternateBounds" />
          </mxGeometry>
        </mxCell>
        <mxCell id="oMRxIsXDjknZMeD3MPNt-44" style="shape=tableRow;horizontal=0;startSize=0;swimlaneHead=0;swimlaneBody=0;fillColor=none;collapsible=0;dropTarget=0;points=[[0,0.5],[1,0.5]];portConstraint=eastwest;top=0;left=0;right=0;bottom=0;" vertex="1" parent="oMRxIsXDjknZMeD3MPNt-39">
          <mxGeometry y="77" width="165" height="52" as="geometry" />
        </mxCell>
        <mxCell id="oMRxIsXDjknZMeD3MPNt-45" value="String" style="shape=partialRectangle;connectable=0;fillColor=none;top=0;left=0;bottom=0;right=0;align=left;spacingLeft=2;overflow=hidden;fontSize=11;" vertex="1" parent="oMRxIsXDjknZMeD3MPNt-44">
          <mxGeometry width="36" height="52" as="geometry">
            <mxRectangle width="36" height="52" as="alternateBounds" />
          </mxGeometry>
        </mxCell>
        <mxCell id="oMRxIsXDjknZMeD3MPNt-46" value="title" style="shape=partialRectangle;connectable=0;fillColor=none;top=0;left=0;bottom=0;right=0;align=left;spacingLeft=2;overflow=hidden;fontSize=11;" vertex="1" parent="oMRxIsXDjknZMeD3MPNt-44">
          <mxGeometry x="36" width="107" height="52" as="geometry">
            <mxRectangle width="107" height="52" as="alternateBounds" />
          </mxGeometry>
        </mxCell>
        <mxCell id="oMRxIsXDjknZMeD3MPNt-47" value="" style="shape=partialRectangle;connectable=0;fillColor=none;top=0;left=0;bottom=0;right=0;align=left;spacingLeft=2;overflow=hidden;fontSize=11;" vertex="1" parent="oMRxIsXDjknZMeD3MPNt-44">
          <mxGeometry x="143" width="22" height="52" as="geometry">
            <mxRectangle width="22" height="52" as="alternateBounds" />
          </mxGeometry>
        </mxCell>
        <mxCell id="oMRxIsXDjknZMeD3MPNt-48" value="EARNINGS" style="shape=table;startSize=25;container=1;collapsible=0;childLayout=tableLayout;fixedRows=1;rowLines=1;fontStyle=1;align=center;resizeLast=1;" vertex="1" parent="1">
          <mxGeometry x="435" y="170" width="374" height="641" as="geometry" />
        </mxCell>
        <mxCell id="oMRxIsXDjknZMeD3MPNt-49" style="shape=tableRow;horizontal=0;startSize=0;swimlaneHead=0;swimlaneBody=0;fillColor=none;collapsible=0;dropTarget=0;points=[[0,0.5],[1,0.5]];portConstraint=eastwest;top=0;left=0;right=0;bottom=0;" vertex="1" parent="oMRxIsXDjknZMeD3MPNt-48">
          <mxGeometry y="25" width="374" height="44" as="geometry" />
        </mxCell>
        <mxCell id="oMRxIsXDjknZMeD3MPNt-50" value="Number" style="shape=partialRectangle;connectable=0;fillColor=none;top=0;left=0;bottom=0;right=0;align=left;spacingLeft=2;overflow=hidden;fontSize=11;" vertex="1" parent="oMRxIsXDjknZMeD3MPNt-49">
          <mxGeometry width="36" height="44" as="geometry">
            <mxRectangle width="36" height="44" as="alternateBounds" />
          </mxGeometry>
        </mxCell>
        <mxCell id="oMRxIsXDjknZMeD3MPNt-51" value="_id" style="shape=partialRectangle;connectable=0;fillColor=none;top=0;left=0;bottom=0;right=0;align=left;spacingLeft=2;overflow=hidden;fontSize=11;" vertex="1" parent="oMRxIsXDjknZMeD3MPNt-49">
          <mxGeometry x="36" width="318" height="44" as="geometry">
            <mxRectangle width="318" height="44" as="alternateBounds" />
          </mxGeometry>
        </mxCell>
        <mxCell id="oMRxIsXDjknZMeD3MPNt-52" value="" style="shape=partialRectangle;connectable=0;fillColor=none;top=0;left=0;bottom=0;right=0;align=left;spacingLeft=2;overflow=hidden;fontSize=11;" vertex="1" parent="oMRxIsXDjknZMeD3MPNt-49">
          <mxGeometry x="354" width="20" height="44" as="geometry">
            <mxRectangle width="20" height="44" as="alternateBounds" />
          </mxGeometry>
        </mxCell>
        <mxCell id="oMRxIsXDjknZMeD3MPNt-53" style="shape=tableRow;horizontal=0;startSize=0;swimlaneHead=0;swimlaneBody=0;fillColor=none;collapsible=0;dropTarget=0;points=[[0,0.5],[1,0.5]];portConstraint=eastwest;top=0;left=0;right=0;bottom=0;" vertex="1" parent="oMRxIsXDjknZMeD3MPNt-48">
          <mxGeometry y="69" width="374" height="44" as="geometry" />
        </mxCell>
        <mxCell id="oMRxIsXDjknZMeD3MPNt-54" value="Number" style="shape=partialRectangle;connectable=0;fillColor=none;top=0;left=0;bottom=0;right=0;align=left;spacingLeft=2;overflow=hidden;fontSize=11;" vertex="1" parent="oMRxIsXDjknZMeD3MPNt-53">
          <mxGeometry width="36" height="44" as="geometry">
            <mxRectangle width="36" height="44" as="alternateBounds" />
          </mxGeometry>
        </mxCell>
        <mxCell id="oMRxIsXDjknZMeD3MPNt-55" value="employee_id" style="shape=partialRectangle;connectable=0;fillColor=none;top=0;left=0;bottom=0;right=0;align=left;spacingLeft=2;overflow=hidden;fontSize=11;" vertex="1" parent="oMRxIsXDjknZMeD3MPNt-53">
          <mxGeometry x="36" width="318" height="44" as="geometry">
            <mxRectangle width="318" height="44" as="alternateBounds" />
          </mxGeometry>
        </mxCell>
        <mxCell id="oMRxIsXDjknZMeD3MPNt-56" value="" style="shape=partialRectangle;connectable=0;fillColor=none;top=0;left=0;bottom=0;right=0;align=left;spacingLeft=2;overflow=hidden;fontSize=11;" vertex="1" parent="oMRxIsXDjknZMeD3MPNt-53">
          <mxGeometry x="354" width="20" height="44" as="geometry">
            <mxRectangle width="20" height="44" as="alternateBounds" />
          </mxGeometry>
        </mxCell>
        <mxCell id="oMRxIsXDjknZMeD3MPNt-57" style="shape=tableRow;horizontal=0;startSize=0;swimlaneHead=0;swimlaneBody=0;fillColor=none;collapsible=0;dropTarget=0;points=[[0,0.5],[1,0.5]];portConstraint=eastwest;top=0;left=0;right=0;bottom=0;" vertex="1" parent="oMRxIsXDjknZMeD3MPNt-48">
          <mxGeometry y="113" width="374" height="44" as="geometry" />
        </mxCell>
        <mxCell id="oMRxIsXDjknZMeD3MPNt-58" value="Number" style="shape=partialRectangle;connectable=0;fillColor=none;top=0;left=0;bottom=0;right=0;align=left;spacingLeft=2;overflow=hidden;fontSize=11;" vertex="1" parent="oMRxIsXDjknZMeD3MPNt-57">
          <mxGeometry width="36" height="44" as="geometry">
            <mxRectangle width="36" height="44" as="alternateBounds" />
          </mxGeometry>
        </mxCell>
        <mxCell id="oMRxIsXDjknZMeD3MPNt-59" value="department_id" style="shape=partialRectangle;connectable=0;fillColor=none;top=0;left=0;bottom=0;right=0;align=left;spacingLeft=2;overflow=hidden;fontSize=11;" vertex="1" parent="oMRxIsXDjknZMeD3MPNt-57">
          <mxGeometry x="36" width="318" height="44" as="geometry">
            <mxRectangle width="318" height="44" as="alternateBounds" />
          </mxGeometry>
        </mxCell>
        <mxCell id="oMRxIsXDjknZMeD3MPNt-60" value="" style="shape=partialRectangle;connectable=0;fillColor=none;top=0;left=0;bottom=0;right=0;align=left;spacingLeft=2;overflow=hidden;fontSize=11;" vertex="1" parent="oMRxIsXDjknZMeD3MPNt-57">
          <mxGeometry x="354" width="20" height="44" as="geometry">
            <mxRectangle width="20" height="44" as="alternateBounds" />
          </mxGeometry>
        </mxCell>
        <mxCell id="oMRxIsXDjknZMeD3MPNt-61" style="shape=tableRow;horizontal=0;startSize=0;swimlaneHead=0;swimlaneBody=0;fillColor=none;collapsible=0;dropTarget=0;points=[[0,0.5],[1,0.5]];portConstraint=eastwest;top=0;left=0;right=0;bottom=0;" vertex="1" parent="oMRxIsXDjknZMeD3MPNt-48">
          <mxGeometry y="157" width="374" height="44" as="geometry" />
        </mxCell>
        <mxCell id="oMRxIsXDjknZMeD3MPNt-62" value="String" style="shape=partialRectangle;connectable=0;fillColor=none;top=0;left=0;bottom=0;right=0;align=left;spacingLeft=2;overflow=hidden;fontSize=11;" vertex="1" parent="oMRxIsXDjknZMeD3MPNt-61">
          <mxGeometry width="36" height="44" as="geometry">
            <mxRectangle width="36" height="44" as="alternateBounds" />
          </mxGeometry>
        </mxCell>
        <mxCell id="oMRxIsXDjknZMeD3MPNt-63" value="job_code" style="shape=partialRectangle;connectable=0;fillColor=none;top=0;left=0;bottom=0;right=0;align=left;spacingLeft=2;overflow=hidden;fontSize=11;" vertex="1" parent="oMRxIsXDjknZMeD3MPNt-61">
          <mxGeometry x="36" width="318" height="44" as="geometry">
            <mxRectangle width="318" height="44" as="alternateBounds" />
          </mxGeometry>
        </mxCell>
        <mxCell id="oMRxIsXDjknZMeD3MPNt-64" value="" style="shape=partialRectangle;connectable=0;fillColor=none;top=0;left=0;bottom=0;right=0;align=left;spacingLeft=2;overflow=hidden;fontSize=11;" vertex="1" parent="oMRxIsXDjknZMeD3MPNt-61">
          <mxGeometry x="354" width="20" height="44" as="geometry">
            <mxRectangle width="20" height="44" as="alternateBounds" />
          </mxGeometry>
        </mxCell>
        <mxCell id="oMRxIsXDjknZMeD3MPNt-65" style="shape=tableRow;horizontal=0;startSize=0;swimlaneHead=0;swimlaneBody=0;fillColor=none;collapsible=0;dropTarget=0;points=[[0,0.5],[1,0.5]];portConstraint=eastwest;top=0;left=0;right=0;bottom=0;" vertex="1" parent="oMRxIsXDjknZMeD3MPNt-48">
          <mxGeometry y="201" width="374" height="44" as="geometry" />
        </mxCell>
        <mxCell id="oMRxIsXDjknZMeD3MPNt-66" value="Number" style="shape=partialRectangle;connectable=0;fillColor=none;top=0;left=0;bottom=0;right=0;align=left;spacingLeft=2;overflow=hidden;fontSize=11;" vertex="1" parent="oMRxIsXDjknZMeD3MPNt-65">
          <mxGeometry width="36" height="44" as="geometry">
            <mxRectangle width="36" height="44" as="alternateBounds" />
          </mxGeometry>
        </mxCell>
        <mxCell id="oMRxIsXDjknZMeD3MPNt-67" value="calendar_year" style="shape=partialRectangle;connectable=0;fillColor=none;top=0;left=0;bottom=0;right=0;align=left;spacingLeft=2;overflow=hidden;fontSize=11;" vertex="1" parent="oMRxIsXDjknZMeD3MPNt-65">
          <mxGeometry x="36" width="318" height="44" as="geometry">
            <mxRectangle width="318" height="44" as="alternateBounds" />
          </mxGeometry>
        </mxCell>
        <mxCell id="oMRxIsXDjknZMeD3MPNt-68" value="" style="shape=partialRectangle;connectable=0;fillColor=none;top=0;left=0;bottom=0;right=0;align=left;spacingLeft=2;overflow=hidden;fontSize=11;" vertex="1" parent="oMRxIsXDjknZMeD3MPNt-65">
          <mxGeometry x="354" width="20" height="44" as="geometry">
            <mxRectangle width="20" height="44" as="alternateBounds" />
          </mxGeometry>
        </mxCell>
        <mxCell id="oMRxIsXDjknZMeD3MPNt-69" style="shape=tableRow;horizontal=0;startSize=0;swimlaneHead=0;swimlaneBody=0;fillColor=none;collapsible=0;dropTarget=0;points=[[0,0.5],[1,0.5]];portConstraint=eastwest;top=0;left=0;right=0;bottom=0;" vertex="1" parent="oMRxIsXDjknZMeD3MPNt-48">
          <mxGeometry y="245" width="374" height="44" as="geometry" />
        </mxCell>
        <mxCell id="oMRxIsXDjknZMeD3MPNt-70" value="Number" style="shape=partialRectangle;connectable=0;fillColor=none;top=0;left=0;bottom=0;right=0;align=left;spacingLeft=2;overflow=hidden;fontSize=11;" vertex="1" parent="oMRxIsXDjknZMeD3MPNt-69">
          <mxGeometry width="36" height="44" as="geometry">
            <mxRectangle width="36" height="44" as="alternateBounds" />
          </mxGeometry>
        </mxCell>
        <mxCell id="oMRxIsXDjknZMeD3MPNt-71" value="quarter" style="shape=partialRectangle;connectable=0;fillColor=none;top=0;left=0;bottom=0;right=0;align=left;spacingLeft=2;overflow=hidden;fontSize=11;" vertex="1" parent="oMRxIsXDjknZMeD3MPNt-69">
          <mxGeometry x="36" width="318" height="44" as="geometry">
            <mxRectangle width="318" height="44" as="alternateBounds" />
          </mxGeometry>
        </mxCell>
        <mxCell id="oMRxIsXDjknZMeD3MPNt-72" value="" style="shape=partialRectangle;connectable=0;fillColor=none;top=0;left=0;bottom=0;right=0;align=left;spacingLeft=2;overflow=hidden;fontSize=11;" vertex="1" parent="oMRxIsXDjknZMeD3MPNt-69">
          <mxGeometry x="354" width="20" height="44" as="geometry">
            <mxRectangle width="20" height="44" as="alternateBounds" />
          </mxGeometry>
        </mxCell>
        <mxCell id="oMRxIsXDjknZMeD3MPNt-73" style="shape=tableRow;horizontal=0;startSize=0;swimlaneHead=0;swimlaneBody=0;fillColor=none;collapsible=0;dropTarget=0;points=[[0,0.5],[1,0.5]];portConstraint=eastwest;top=0;left=0;right=0;bottom=0;" vertex="1" parent="oMRxIsXDjknZMeD3MPNt-48">
          <mxGeometry y="289" width="374" height="44" as="geometry" />
        </mxCell>
        <mxCell id="oMRxIsXDjknZMeD3MPNt-74" value="Number" style="shape=partialRectangle;connectable=0;fillColor=none;top=0;left=0;bottom=0;right=0;align=left;spacingLeft=2;overflow=hidden;fontSize=11;" vertex="1" parent="oMRxIsXDjknZMeD3MPNt-73">
          <mxGeometry width="36" height="44" as="geometry">
            <mxRectangle width="36" height="44" as="alternateBounds" />
          </mxGeometry>
        </mxCell>
        <mxCell id="oMRxIsXDjknZMeD3MPNt-75" value="base_salary" style="shape=partialRectangle;connectable=0;fillColor=none;top=0;left=0;bottom=0;right=0;align=left;spacingLeft=2;overflow=hidden;fontSize=11;" vertex="1" parent="oMRxIsXDjknZMeD3MPNt-73">
          <mxGeometry x="36" width="318" height="44" as="geometry">
            <mxRectangle width="318" height="44" as="alternateBounds" />
          </mxGeometry>
        </mxCell>
        <mxCell id="oMRxIsXDjknZMeD3MPNt-76" value="" style="shape=partialRectangle;connectable=0;fillColor=none;top=0;left=0;bottom=0;right=0;align=left;spacingLeft=2;overflow=hidden;fontSize=11;" vertex="1" parent="oMRxIsXDjknZMeD3MPNt-73">
          <mxGeometry x="354" width="20" height="44" as="geometry">
            <mxRectangle width="20" height="44" as="alternateBounds" />
          </mxGeometry>
        </mxCell>
        <mxCell id="oMRxIsXDjknZMeD3MPNt-77" style="shape=tableRow;horizontal=0;startSize=0;swimlaneHead=0;swimlaneBody=0;fillColor=none;collapsible=0;dropTarget=0;points=[[0,0.5],[1,0.5]];portConstraint=eastwest;top=0;left=0;right=0;bottom=0;" vertex="1" parent="oMRxIsXDjknZMeD3MPNt-48">
          <mxGeometry y="333" width="374" height="44" as="geometry" />
        </mxCell>
        <mxCell id="oMRxIsXDjknZMeD3MPNt-78" value="String" style="shape=partialRectangle;connectable=0;fillColor=none;top=0;left=0;bottom=0;right=0;align=left;spacingLeft=2;overflow=hidden;fontSize=11;" vertex="1" parent="oMRxIsXDjknZMeD3MPNt-77">
          <mxGeometry width="36" height="44" as="geometry">
            <mxRectangle width="36" height="44" as="alternateBounds" />
          </mxGeometry>
        </mxCell>
        <mxCell id="oMRxIsXDjknZMeD3MPNt-79" value="salary_type" style="shape=partialRectangle;connectable=0;fillColor=none;top=0;left=0;bottom=0;right=0;align=left;spacingLeft=2;overflow=hidden;fontSize=11;" vertex="1" parent="oMRxIsXDjknZMeD3MPNt-77">
          <mxGeometry x="36" width="318" height="44" as="geometry">
            <mxRectangle width="318" height="44" as="alternateBounds" />
          </mxGeometry>
        </mxCell>
        <mxCell id="oMRxIsXDjknZMeD3MPNt-80" value="" style="shape=partialRectangle;connectable=0;fillColor=none;top=0;left=0;bottom=0;right=0;align=left;spacingLeft=2;overflow=hidden;fontSize=11;" vertex="1" parent="oMRxIsXDjknZMeD3MPNt-77">
          <mxGeometry x="354" width="20" height="44" as="geometry">
            <mxRectangle width="20" height="44" as="alternateBounds" />
          </mxGeometry>
        </mxCell>
        <mxCell id="oMRxIsXDjknZMeD3MPNt-81" style="shape=tableRow;horizontal=0;startSize=0;swimlaneHead=0;swimlaneBody=0;fillColor=none;collapsible=0;dropTarget=0;points=[[0,0.5],[1,0.5]];portConstraint=eastwest;top=0;left=0;right=0;bottom=0;" vertex="1" parent="oMRxIsXDjknZMeD3MPNt-48">
          <mxGeometry y="377" width="374" height="44" as="geometry" />
        </mxCell>
        <mxCell id="oMRxIsXDjknZMeD3MPNt-82" value="Number" style="shape=partialRectangle;connectable=0;fillColor=none;top=0;left=0;bottom=0;right=0;align=left;spacingLeft=2;overflow=hidden;fontSize=11;" vertex="1" parent="oMRxIsXDjknZMeD3MPNt-81">
          <mxGeometry width="36" height="44" as="geometry">
            <mxRectangle width="36" height="44" as="alternateBounds" />
          </mxGeometry>
        </mxCell>
        <mxCell id="oMRxIsXDjknZMeD3MPNt-83" value="overtime_gross_pay_qtd" style="shape=partialRectangle;connectable=0;fillColor=none;top=0;left=0;bottom=0;right=0;align=left;spacingLeft=2;overflow=hidden;fontSize=11;" vertex="1" parent="oMRxIsXDjknZMeD3MPNt-81">
          <mxGeometry x="36" width="318" height="44" as="geometry">
            <mxRectangle width="318" height="44" as="alternateBounds" />
          </mxGeometry>
        </mxCell>
        <mxCell id="oMRxIsXDjknZMeD3MPNt-84" value="" style="shape=partialRectangle;connectable=0;fillColor=none;top=0;left=0;bottom=0;right=0;align=left;spacingLeft=2;overflow=hidden;fontSize=11;" vertex="1" parent="oMRxIsXDjknZMeD3MPNt-81">
          <mxGeometry x="354" width="20" height="44" as="geometry">
            <mxRectangle width="20" height="44" as="alternateBounds" />
          </mxGeometry>
        </mxCell>
        <mxCell id="oMRxIsXDjknZMeD3MPNt-85" style="shape=tableRow;horizontal=0;startSize=0;swimlaneHead=0;swimlaneBody=0;fillColor=none;collapsible=0;dropTarget=0;points=[[0,0.5],[1,0.5]];portConstraint=eastwest;top=0;left=0;right=0;bottom=0;" vertex="1" parent="oMRxIsXDjknZMeD3MPNt-48">
          <mxGeometry y="421" width="374" height="44" as="geometry" />
        </mxCell>
        <mxCell id="oMRxIsXDjknZMeD3MPNt-86" value="Number" style="shape=partialRectangle;connectable=0;fillColor=none;top=0;left=0;bottom=0;right=0;align=left;spacingLeft=2;overflow=hidden;fontSize=11;" vertex="1" parent="oMRxIsXDjknZMeD3MPNt-85">
          <mxGeometry width="36" height="44" as="geometry">
            <mxRectangle width="36" height="44" as="alternateBounds" />
          </mxGeometry>
        </mxCell>
        <mxCell id="oMRxIsXDjknZMeD3MPNt-87" value="base_gross_pay_qtd" style="shape=partialRectangle;connectable=0;fillColor=none;top=0;left=0;bottom=0;right=0;align=left;spacingLeft=2;overflow=hidden;fontSize=11;" vertex="1" parent="oMRxIsXDjknZMeD3MPNt-85">
          <mxGeometry x="36" width="318" height="44" as="geometry">
            <mxRectangle width="318" height="44" as="alternateBounds" />
          </mxGeometry>
        </mxCell>
        <mxCell id="oMRxIsXDjknZMeD3MPNt-88" value="" style="shape=partialRectangle;connectable=0;fillColor=none;top=0;left=0;bottom=0;right=0;align=left;spacingLeft=2;overflow=hidden;fontSize=11;" vertex="1" parent="oMRxIsXDjknZMeD3MPNt-85">
          <mxGeometry x="354" width="20" height="44" as="geometry">
            <mxRectangle width="20" height="44" as="alternateBounds" />
          </mxGeometry>
        </mxCell>
        <mxCell id="oMRxIsXDjknZMeD3MPNt-89" style="shape=tableRow;horizontal=0;startSize=0;swimlaneHead=0;swimlaneBody=0;fillColor=none;collapsible=0;dropTarget=0;points=[[0,0.5],[1,0.5]];portConstraint=eastwest;top=0;left=0;right=0;bottom=0;" vertex="1" parent="oMRxIsXDjknZMeD3MPNt-48">
          <mxGeometry y="465" width="374" height="44" as="geometry" />
        </mxCell>
        <mxCell id="oMRxIsXDjknZMeD3MPNt-90" value="Number" style="shape=partialRectangle;connectable=0;fillColor=none;top=0;left=0;bottom=0;right=0;align=left;spacingLeft=2;overflow=hidden;fontSize=11;" vertex="1" parent="oMRxIsXDjknZMeD3MPNt-89">
          <mxGeometry width="36" height="44" as="geometry">
            <mxRectangle width="36" height="44" as="alternateBounds" />
          </mxGeometry>
        </mxCell>
        <mxCell id="oMRxIsXDjknZMeD3MPNt-91" value="longevity_gross_pay_qtd" style="shape=partialRectangle;connectable=0;fillColor=none;top=0;left=0;bottom=0;right=0;align=left;spacingLeft=2;overflow=hidden;fontSize=11;" vertex="1" parent="oMRxIsXDjknZMeD3MPNt-89">
          <mxGeometry x="36" width="318" height="44" as="geometry">
            <mxRectangle width="318" height="44" as="alternateBounds" />
          </mxGeometry>
        </mxCell>
        <mxCell id="oMRxIsXDjknZMeD3MPNt-92" value="" style="shape=partialRectangle;connectable=0;fillColor=none;top=0;left=0;bottom=0;right=0;align=left;spacingLeft=2;overflow=hidden;fontSize=11;" vertex="1" parent="oMRxIsXDjknZMeD3MPNt-89">
          <mxGeometry x="354" width="20" height="44" as="geometry">
            <mxRectangle width="20" height="44" as="alternateBounds" />
          </mxGeometry>
        </mxCell>
        <mxCell id="oMRxIsXDjknZMeD3MPNt-93" style="shape=tableRow;horizontal=0;startSize=0;swimlaneHead=0;swimlaneBody=0;fillColor=none;collapsible=0;dropTarget=0;points=[[0,0.5],[1,0.5]];portConstraint=eastwest;top=0;left=0;right=0;bottom=0;" vertex="1" parent="oMRxIsXDjknZMeD3MPNt-48">
          <mxGeometry y="509" width="374" height="44" as="geometry" />
        </mxCell>
        <mxCell id="oMRxIsXDjknZMeD3MPNt-94" value="Number" style="shape=partialRectangle;connectable=0;fillColor=none;top=0;left=0;bottom=0;right=0;align=left;spacingLeft=2;overflow=hidden;fontSize=11;" vertex="1" parent="oMRxIsXDjknZMeD3MPNt-93">
          <mxGeometry width="36" height="44" as="geometry">
            <mxRectangle width="36" height="44" as="alternateBounds" />
          </mxGeometry>
        </mxCell>
        <mxCell id="oMRxIsXDjknZMeD3MPNt-95" value="post_separation_gross_pay_qtd" style="shape=partialRectangle;connectable=0;fillColor=none;top=0;left=0;bottom=0;right=0;align=left;spacingLeft=2;overflow=hidden;fontSize=11;" vertex="1" parent="oMRxIsXDjknZMeD3MPNt-93">
          <mxGeometry x="36" width="318" height="44" as="geometry">
            <mxRectangle width="318" height="44" as="alternateBounds" />
          </mxGeometry>
        </mxCell>
        <mxCell id="oMRxIsXDjknZMeD3MPNt-96" value="" style="shape=partialRectangle;connectable=0;fillColor=none;top=0;left=0;bottom=0;right=0;align=left;spacingLeft=2;overflow=hidden;fontSize=11;" vertex="1" parent="oMRxIsXDjknZMeD3MPNt-93">
          <mxGeometry x="354" width="20" height="44" as="geometry">
            <mxRectangle width="20" height="44" as="alternateBounds" />
          </mxGeometry>
        </mxCell>
        <mxCell id="oMRxIsXDjknZMeD3MPNt-97" style="shape=tableRow;horizontal=0;startSize=0;swimlaneHead=0;swimlaneBody=0;fillColor=none;collapsible=0;dropTarget=0;points=[[0,0.5],[1,0.5]];portConstraint=eastwest;top=0;left=0;right=0;bottom=0;" vertex="1" parent="oMRxIsXDjknZMeD3MPNt-48">
          <mxGeometry y="553" width="374" height="44" as="geometry" />
        </mxCell>
        <mxCell id="oMRxIsXDjknZMeD3MPNt-98" value="Number" style="shape=partialRectangle;connectable=0;fillColor=none;top=0;left=0;bottom=0;right=0;align=left;spacingLeft=2;overflow=hidden;fontSize=11;" vertex="1" parent="oMRxIsXDjknZMeD3MPNt-97">
          <mxGeometry width="36" height="44" as="geometry">
            <mxRectangle width="36" height="44" as="alternateBounds" />
          </mxGeometry>
        </mxCell>
        <mxCell id="oMRxIsXDjknZMeD3MPNt-99" value="miscellaneous_gross_pay_qtd" style="shape=partialRectangle;connectable=0;fillColor=none;top=0;left=0;bottom=0;right=0;align=left;spacingLeft=2;overflow=hidden;fontSize=11;" vertex="1" parent="oMRxIsXDjknZMeD3MPNt-97">
          <mxGeometry x="36" width="318" height="44" as="geometry">
            <mxRectangle width="318" height="44" as="alternateBounds" />
          </mxGeometry>
        </mxCell>
        <mxCell id="oMRxIsXDjknZMeD3MPNt-100" value="" style="shape=partialRectangle;connectable=0;fillColor=none;top=0;left=0;bottom=0;right=0;align=left;spacingLeft=2;overflow=hidden;fontSize=11;" vertex="1" parent="oMRxIsXDjknZMeD3MPNt-97">
          <mxGeometry x="354" width="20" height="44" as="geometry">
            <mxRectangle width="20" height="44" as="alternateBounds" />
          </mxGeometry>
        </mxCell>
        <mxCell id="oMRxIsXDjknZMeD3MPNt-101" style="shape=tableRow;horizontal=0;startSize=0;swimlaneHead=0;swimlaneBody=0;fillColor=none;collapsible=0;dropTarget=0;points=[[0,0.5],[1,0.5]];portConstraint=eastwest;top=0;left=0;right=0;bottom=0;" vertex="1" parent="oMRxIsXDjknZMeD3MPNt-48">
          <mxGeometry y="597" width="374" height="44" as="geometry" />
        </mxCell>
        <mxCell id="oMRxIsXDjknZMeD3MPNt-102" value="Number" style="shape=partialRectangle;connectable=0;fillColor=none;top=0;left=0;bottom=0;right=0;align=left;spacingLeft=2;overflow=hidden;fontSize=11;" vertex="1" parent="oMRxIsXDjknZMeD3MPNt-101">
          <mxGeometry width="36" height="44" as="geometry">
            <mxRectangle width="36" height="44" as="alternateBounds" />
          </mxGeometry>
        </mxCell>
        <mxCell id="oMRxIsXDjknZMeD3MPNt-103" value="total_gross_pay" style="shape=partialRectangle;connectable=0;fillColor=none;top=0;left=0;bottom=0;right=0;align=left;spacingLeft=2;overflow=hidden;fontSize=11;" vertex="1" parent="oMRxIsXDjknZMeD3MPNt-101">
          <mxGeometry x="36" width="318" height="44" as="geometry">
            <mxRectangle width="318" height="44" as="alternateBounds" />
          </mxGeometry>
        </mxCell>
        <mxCell id="oMRxIsXDjknZMeD3MPNt-104" value="" style="shape=partialRectangle;connectable=0;fillColor=none;top=0;left=0;bottom=0;right=0;align=left;spacingLeft=2;overflow=hidden;fontSize=11;" vertex="1" parent="oMRxIsXDjknZMeD3MPNt-101">
          <mxGeometry x="354" width="20" height="44" as="geometry">
            <mxRectangle width="20" height="44" as="alternateBounds" />
          </mxGeometry>
        </mxCell>
        <mxCell id="oMRxIsXDjknZMeD3MPNt-105" value="employee_id" style="curved=1;startArrow=ERmandOne;startSize=10;;endArrow=ERzeroToMany;endSize=10;;exitX=0;exitY=0.75;entryX=0.5;entryY=0;rounded=0;" edge="1" parent="1" source="oMRxIsXDjknZMeD3MPNt-48" target="oMRxIsXDjknZMeD3MPNt-1">
          <mxGeometry relative="1" as="geometry">
            <Array as="points">
              <mxPoint x="180" y="863" />
            </Array>
          </mxGeometry>
        </mxCell>
        <mxCell id="oMRxIsXDjknZMeD3MPNt-106" value="department_id" style="curved=1;startArrow=ERmandOne;startSize=10;;endArrow=ERzeroToMany;endSize=10;;exitX=0.5;exitY=1;entryX=0.5;entryY=0;rounded=0;" edge="1" parent="1" source="oMRxIsXDjknZMeD3MPNt-48" target="oMRxIsXDjknZMeD3MPNt-30">
          <mxGeometry relative="1" as="geometry">
            <Array as="points" />
          </mxGeometry>
        </mxCell>
        <mxCell id="oMRxIsXDjknZMeD3MPNt-107" value="job_code" style="curved=1;startArrow=ERmandOne;startSize=10;;endArrow=ERzeroToMany;endSize=10;;exitX=1;exitY=0.8;entryX=0.5;entryY=0;rounded=0;" edge="1" parent="1" source="oMRxIsXDjknZMeD3MPNt-48" target="oMRxIsXDjknZMeD3MPNt-39">
          <mxGeometry relative="1" as="geometry">
            <Array as="points">
              <mxPoint x="985" y="863" />
            </Array>
          </mxGeometry>
        </mxCell>
      </root>
    </mxGraphModel>
  </diagram>
</mxfile>
